<svg aria-hidden="true" style="position: absolute; width: 0; height: 0; overflow: hidden;" version="1.1" xmlns="http://www.w3.org/2000/svg" xmlns:xlink="http://www.w3.org/1999/xlink">
  <defs>
	<symbol id="icon-undo" viewBox="0 0 32 32">
		<path d="M16.667 10.667c-3.533 0-6.733 1.32-9.2 3.467l-4.8-4.8v12h12l-4.827-4.827c1.853-1.547 4.213-2.507 6.827-2.507 4.72 0 8.733 3.080 10.133 7.333l3.16-1.040c-1.853-5.587-7.093-9.627-13.293-9.627z"></path>
	</symbol>
	<symbol id="icon-delete" viewBox="0 0 32 32">
		<path d="M8 25.333c0 1.467 1.2 2.667 2.667 2.667h10.667c1.467 0 2.667-1.2 2.667-2.667v-16h-16v16zM11.28 15.84l1.88-1.88 2.84 2.827 2.827-2.827 1.88 1.88-2.827 2.827 2.827 2.827-1.88 1.88-2.827-2.827-2.827 2.827-1.88-1.88 2.827-2.827-2.84-2.827zM20.667 5.333l-1.333-1.333h-6.667l-1.333 1.333h-4.667v2.667h18.667v-2.667z"></path>
	</symbol>
	<symbol id="icon-edit" viewBox="0 0 32 32">
		<path d="M18.747 12.027l1.227 1.227-12.080 12.080h-1.227v-1.227l12.080-12.080zM23.547 4c-0.333 0-0.68 0.133-0.933 0.387l-2.44 2.44 5 5 2.44-2.44c0.52-0.52 0.52-1.36 0-1.88l-3.12-3.12c-0.267-0.267-0.6-0.387-0.947-0.387zM18.747 8.253l-14.747 14.747v5h5l14.747-14.747-5-5z"></path>
	</symbol>
  </defs>
</svg>
